<?xml version="1.0" encoding="UTF-8"?>
<svg xmlns="http://www.w3.org/2000/svg" viewBox="0 0 24 24">
  <style>
    .s-mark { fill: #0A0A0A; }
    @media (prefers-color-scheme: dark) {
      .s-mark { fill: #F5F5F0; }
    }
  </style>
  <path class="s-mark" d="M21.57,16.51c0,2.24-.91,4.07-2.73,5.51-1.82,1.44-4.19,2.16-7.12,2.16-2.16,0-4.16-.32-6-.95-1.84-.65-3.75-1.8-5.72-3.45l2.22-3.35c.84.71,1.69,1.32,2.55,1.82.84.53,1.62.93,2.35,1.22.73.29,1.5.52,2.3.68.78.18,1.54.26,2.27.26,1.82,0,3.27-.39,4.34-1.16s1.61-1.71,1.61-2.82c0-.85-.37-1.56-1.1-2.14-.41-.36-.88-.64-1.42-.83-.53-.16-1.16-.24-1.89-.24l-1.53-.12c-1.62,0-3.02-.14-4.21-.42-1.19-.26-2.23-.57-3.1-.95-1.09-.58-1.91-1.29-2.47-2.12-.55-.82-.82-1.8-.82-2.93,0-1.97.83-3.58,2.48-4.85.84-.61,1.76-1.06,2.75-1.36.99-.3,2.14-.45,3.47-.45.99,0,1.9.07,2.71.2.81.13,1.7.38,2.66.75,1.77.61,3.61,1.63,5.53,3.07l-2.23,3.31c-.89-.73-1.66-1.29-2.33-1.7-.68-.42-1.37-.77-2.06-1.05-.71-.24-1.41-.43-2.1-.57-.68-.13-1.39-.2-2.12-.2-1.45,0-2.65.29-3.62.87-.84.48-1.25,1.12-1.25,1.9,0,.24.05.49.16.75.07.11.15.22.25.32.07.11.19.2.37.28.41.34,1.09.61,2.04.83.92.26,2.01.38,3.27.38l3.07.24c1.09,0,2.07.21,2.95.63.87.4,1.68.97,2.43,1.7,1.38,1.32,2.06,2.92,2.06,4.79Z"/>
</svg>
