<?xml version="1.0" encoding="UTF-8"?>
<svg id="_图层_1" data-name="图层_1" xmlns="http://www.w3.org/2000/svg" version="1.1" viewBox="0 0 187.32 24.18">
  <!-- Generator: Adobe Illustrator 30.5.1, SVG Export Plug-In . SVG Version: 2.1.4 Build 3)  -->
  <defs>
    <style>
      .st0 {
        fill: #fff;
      }
    </style>
  </defs>
  <path class="st0" d="M21.57,16.51c0,2.24-.91,4.07-2.73,5.51-1.82,1.44-4.19,2.16-7.12,2.16-2.16,0-4.16-.32-6-.95-1.84-.65-3.75-1.8-5.72-3.45l2.22-3.35c.84.71,1.69,1.32,2.55,1.82.84.53,1.62.93,2.35,1.22.73.29,1.5.52,2.3.68.78.18,1.54.26,2.27.26,1.82,0,3.27-.39,4.34-1.16s1.61-1.71,1.61-2.82c0-.85-.37-1.56-1.1-2.14-.41-.36-.88-.64-1.42-.83-.53-.16-1.16-.24-1.89-.24l-1.53-.12c-1.62,0-3.02-.14-4.21-.42-1.19-.26-2.23-.57-3.1-.95-1.09-.58-1.91-1.29-2.47-2.12-.55-.82-.82-1.8-.82-2.93,0-1.97.83-3.58,2.48-4.85.84-.61,1.76-1.06,2.75-1.36.99-.3,2.14-.45,3.47-.45.99,0,1.9.07,2.71.2.81.13,1.7.38,2.66.75,1.77.61,3.61,1.63,5.53,3.07l-2.23,3.31c-.89-.73-1.66-1.29-2.33-1.7-.68-.42-1.37-.77-2.06-1.05-.71-.24-1.41-.43-2.1-.57-.68-.13-1.39-.2-2.12-.2-1.45,0-2.65.29-3.62.87-.84.48-1.25,1.12-1.25,1.9,0,.24.05.49.16.75.07.11.15.22.25.32.07.11.19.2.37.28.41.34,1.09.61,2.04.83.92.26,2.01.38,3.27.38l3.07.24c1.09,0,2.07.21,2.95.63.87.4,1.68.97,2.43,1.7,1.38,1.32,2.06,2.92,2.06,4.79Z"/>
  <path class="st0" d="M44.4,4.28h-8.83v19.31h-3.85V4.28h-8.81V.51h21.49v3.78Z"/>
  <path class="st0" d="M68.24,23.6h-4.14l-2.85-5.88h-10.88l-2.76,5.88h-4.14L54.35.51h2.89l11,23.09ZM59.5,13.9l-3.7-7.7-3.66,7.7h7.36Z"/>
  <path class="st0" d="M92.91,23.6h-4.22l-5.25-9.56h-7.2v9.56h-3.79V.51h12.6c1.09,0,2.07.15,2.95.44.85.31,1.62.75,2.3,1.33,1.31,1.19,1.97,2.82,1.97,4.91,0,1.66-.53,3.15-1.58,4.48-.84.98-1.86,1.68-3.07,2.1l5.29,9.82ZM88.28,7.29c0-.97-.28-1.71-.83-2.23-.55-.52-1.36-.78-2.41-.78h-8.81v5.94h8.65c1.16,0,2.03-.26,2.6-.79.53-.44.8-1.16.8-2.14Z"/>
  <path class="st0" d="M124.97.51l-7.16,23.09h-2.78l-5.1-16.22-5.03,16.22h-2.81L94.87.51h3.83l4.77,15.47,4.9-15.47h3.2l4.9,15.43,4.79-15.43h3.71Z"/>
  <path class="st0" d="M133.15,23.6h-3.85V.38h3.85v23.21Z"/>
  <path class="st0" d="M159.7,23.6h-2.19l-12.77-15.31v15.31h-3.83V.51h2.25l12.74,15.29V.51h3.8v23.09Z"/>
  <path class="st0" d="M187.32,10.73l-.07,7.27c-.53,1-1.15,1.88-1.87,2.65-.71.79-1.51,1.45-2.38,1.98-1.73,1.04-3.66,1.56-5.79,1.56-1.66,0-3.16-.29-4.52-.87-1.35-.59-2.6-1.45-3.74-2.59-2.14-2.29-3.21-5.17-3.21-8.65s1.08-6.33,3.24-8.65c2.15-2.29,4.9-3.43,8.23-3.43,2.02,0,3.87.47,5.54,1.41.91.5,1.72,1.08,2.42,1.74.68.66,1.37,1.56,2.08,2.69l-3.23,2.44c-.45-.89-.91-1.6-1.37-2.12-.46-.53-1-.96-1.61-1.31-1.11-.69-2.38-1.03-3.83-1.03-2.23,0-4.05.78-5.45,2.34-1.41,1.6-2.12,3.58-2.12,5.92,0,1.21.18,2.32.54,3.31.34,1,.88,1.89,1.63,2.69,1.37,1.52,3.17,2.28,5.4,2.28,1.36,0,2.56-.29,3.59-.87,1.02-.58,1.91-1.46,2.68-2.65v-2.4h-5.71v-3.72h9.54Z"/>
</svg>